solid 
facet normal 0 0 1
 outer loop
  vertex 1 1 1
  vertex -1 1 1
  vertex -1 -1 1
 endloop
endfacet
facet normal 0 -0 1
 outer loop
  vertex 1 1 1
  vertex -1 -1 1
  vertex 1 -1 1
 endloop
endfacet
facet normal 0 -1 0
 outer loop
  vertex 1 -1 -1
  vertex 1 -1 1
  vertex -1 -1 1
 endloop
endfacet
facet normal 0 -1 0
 outer loop
  vertex 1 -1 -1
  vertex -1 -1 1
  vertex -1 -1 -1
 endloop
endfacet
facet normal -1 -0 -0
 outer loop
  vertex -1 -1 -1
  vertex -1 -1 1
  vertex -1 1 1
 endloop
endfacet
facet normal -1 -0 0
 outer loop
  vertex -1 -1 -1
  vertex -1 1 1
  vertex -1 1 -1
 endloop
endfacet
facet normal 0 0 -1
 outer loop
  vertex -1 1 -1
  vertex 1 1 -1
  vertex 1 -1 -1
 endloop
endfacet
facet normal 0 0 -1
 outer loop
  vertex -1 1 -1
  vertex 1 -1 -1
  vertex -1 -1 -1
 endloop
endfacet
facet normal 1 -0 0
 outer loop
  vertex 1 1 -1
  vertex 1 1 1
  vertex 1 -1 1
 endloop
endfacet
facet normal 1 -0 0
 outer loop
  vertex 1 1 -1
  vertex 1 -1 1
  vertex 1 -1 -1
 endloop
endfacet
facet normal 0 1 0
 outer loop
  vertex -1 1 -1
  vertex -1 1 1
  vertex 1 1 1
 endloop
endfacet
facet normal 0 1 -0
 outer loop
  vertex -1 1 -1
  vertex 1 1 1
  vertex 1 1 -1
 endloop
endfacet
facet normal 0 -0 -1
 outer loop
  vertex -3.0647707 -11.032445 9.9217606e-11
  vertex -3.9711409 -8.502055 9.9217606e-11
  vertex -0.9816977 -7.008459 9.9217606e-11
 endloop
endfacet
facet normal 0 0 -1
 outer loop
  vertex -0.9816977 -7.008459 9.9217606e-11
  vertex -1.2214333 -9.940593 9.9217606e-11
  vertex -3.0647707 -11.032445 9.9217606e-11
 endloop
endfacet
facet normal -0 0 -1
 outer loop
  vertex -1.2214333 -9.940593 9.9217606e-11
  vertex -0.9816977 -7.008459 9.9217606e-11
  vertex -0.3870219 -11.701051 9.9217606e-11
 endloop
endfacet
facet normal -0 -0 -1
 outer loop
  vertex -0.3870219 -11.701051 9.9217606e-11
  vertex -0.9816977 -7.008459 9.9217606e-11
  vertex 0.26075387 -9.914869 9.9217606e-11
 endloop
endfacet
facet normal 0 0 -1
 outer loop
  vertex -0.9816977 -7.008459 9.9217606e-11
  vertex 1.8846722 -11.156544 9.9217606e-11
  vertex 0.26075387 -9.914869 9.9217606e-11
 endloop
endfacet
facet normal 0 0 -1
 outer loop
  vertex -5.8207107 -1.9537523 9.9217606e-11
  vertex -0.9816977 -7.008459 9.9217606e-11
  vertex -3.9711409 -8.502055 9.9217606e-11
 endloop
endfacet
facet normal -0 0 -1
 outer loop
  vertex -0.9816977 -7.008459 9.9217606e-11
  vertex 2.008278 -6.0169935 9.9217606e-11
  vertex 1.8846722 -11.156544 9.9217606e-11
 endloop
endfacet
facet normal 1.930987e-18 1.8485882e-18 -1
 outer loop
  vertex -5.8207107 -1.9537523 9.9217606e-11
  vertex -3.2600691 -0.87491375 9.921761e-11
  vertex -0.9816977 -7.008459 9.9217606e-11
 endloop
endfacet
facet normal -3.3399594e-19 1.0072358e-18 -1
 outer loop
  vertex -3.2600691 -0.87491375 9.921761e-11
  vertex 2.008278 -6.0169935 9.9217606e-11
  vertex -0.9816977 -7.008459 9.9217606e-11
 endloop
endfacet
facet normal -0.3519167 0.87001336 -0.34529904
 outer loop
  vertex -5.8207107 -1.9537523 9.9217606e-11
  vertex -8.305778 -1.1722971 4.501643
  vertex -5.3711076 1.7071216 8.765697
 endloop
endfacet
facet normal -0.36473194 0.8656974 -0.34283918
 outer loop
  vertex -5.3711076 1.7071216 8.765697
  vertex -3.2600691 -0.87491375 9.921761e-11
  vertex -5.8207107 -1.9537523 9.9217606e-11
 endloop
endfacet
facet normal -0.8660124 -0.2441364 -0.43637145
 outer loop
  vertex -3.9711409 -8.502055 9.9217606e-11
  vertex -7.775979 -8.124307 7.339653
  vertex -8.305778 -1.1722971 4.501643
 endloop
endfacet
facet normal -0.8662015 -0.24465884 -0.43570283
 outer loop
  vertex -8.305778 -1.1722971 4.501643
  vertex -5.8207107 -1.9537523 9.9217606e-11
  vertex -3.9711409 -8.502055 9.9217606e-11
 endloop
endfacet
facet normal -0.8696002 0.14430438 0.4721988
 outer loop
  vertex -7.775979 -8.124307 7.339653
  vertex -4.912219 -5.7974195 11.902448
  vertex -5.1655293 -0.95411265 9.955833
 endloop
endfacet
facet normal -0.8610615 0.13456455 0.49037287
 outer loop
  vertex -5.1655293 -0.95411265 9.955833
  vertex -8.305778 -1.1722971 4.501643
  vertex -7.775979 -8.124307 7.339653
 endloop
endfacet
facet normal -0.892092 -0.3195419 0.3194759
 outer loop
  vertex -3.0647707 -11.032445 9.9217606e-11
  vertex -3.0148335 -9.4466505 1.725565
  vertex -3.9711409 -8.502055 9.9217606e-11
 endloop
endfacet
facet normal 0.084455885 -0.93128854 0.35435694
 outer loop
  vertex -1.2214333 -9.940593 9.9217606e-11
  vertex -1.2119391 -9.266748 1.7686732
  vertex -3.0148335 -9.4466505 1.725565
 endloop
endfacet
facet normal 0.40263426 -0.6797539 0.6130418
 outer loop
  vertex -3.0148335 -9.4466505 1.725565
  vertex -3.0647707 -11.032445 9.9217606e-11
  vertex -1.2214333 -9.940593 9.9217606e-11
 endloop
endfacet
facet normal 0.04046981 -0.5783024 0.81481814
 outer loop
  vertex -0.3870219 -11.701051 9.9217606e-11
  vertex 0.25981092 -9.133084 1.790441
  vertex -1.2119391 -9.266748 1.7686732
 endloop
endfacet
facet normal -0.89114404 -0.42237914 0.16570526
 outer loop
  vertex -1.2119391 -9.266748 1.7686732
  vertex -1.2214333 -9.940593 9.9217606e-11
  vertex -0.3870219 -11.701051 9.9217606e-11
 endloop
endfacet
facet normal 0.9297742 -0.33719146 0.14772224
 outer loop
  vertex 0.26075387 -9.914869 9.9217606e-11
  vertex 0.25981092 -9.133084 1.790441
  vertex -0.3870219 -11.701051 9.9217606e-11
 endloop
endfacet
facet normal 0.046829112 -0.6405876 0.7664558
 outer loop
  vertex 1.8846722 -11.156544 9.9217606e-11
  vertex 1.1254933 -9.054465 1.8032575
  vertex 0.25981092 -9.133084 1.790441
 endloop
endfacet
facet normal -0.5739197 -0.7505984 0.32744187
 outer loop
  vertex 0.25981092 -9.133084 1.790441
  vertex 0.26075387 -9.914869 9.9217606e-11
  vertex 1.8846722 -11.156544 9.9217606e-11
 endloop
endfacet
facet normal 0.084814094 -0.9867881 -0.13804318
 outer loop
  vertex -1.2119391 -9.266748 1.7686732
  vertex -1.211011 -9.975108 6.8328834
  vertex -3.871881 -10.207804 6.861439
 endloop
endfacet
facet normal 0.10151865 -0.9864021 -0.1292471
 outer loop
  vertex -3.871881 -10.207804 6.861439
  vertex -3.0148335 -9.4466505 1.725565
  vertex -1.2119391 -9.266748 1.7686732
 endloop
endfacet
facet normal 0.09160687 -0.9861922 -0.13796091
 outer loop
  vertex 0.25981092 -9.133084 1.790441
  vertex -0.4222473 -9.901083 6.82747
  vertex -1.211011 -9.975108 6.8328834
 endloop
endfacet
facet normal 0.09160635 -0.98619217 -0.13796107
 outer loop
  vertex -1.211011 -9.975108 6.8328834
  vertex -1.2119391 -9.266748 1.7686732
  vertex 0.25981092 -9.133084 1.790441
 endloop
endfacet
facet normal 0.091605954 -0.9861922 -0.13796103
 outer loop
  vertex 0.25981092 -9.133084 1.790441
  vertex 0.23218584 -9.839665 6.822979
  vertex -0.4222473 -9.901083 6.82747
 endloop
endfacet
facet normal 0.065340266 -0.98758477 -0.14285308
 outer loop
  vertex 1.1254933 -9.054465 1.8032575
  vertex 1.7781792 -9.725347 6.739789
  vertex 0.23218584 -9.839665 6.822979
 endloop
endfacet
facet normal 0.09160591 -0.9861922 -0.13796103
 outer loop
  vertex 0.23218584 -9.839665 6.822979
  vertex 0.25981092 -9.133084 1.790441
  vertex 1.1254933 -9.054465 1.8032575
 endloop
endfacet
facet normal 0.07213417 -0.74322826 0.66513795
 outer loop
  vertex -1.211011 -9.975108 6.8328834
  vertex -4.912219 -5.7974195 11.902448
  vertex -3.871881 -10.207804 6.861439
 endloop
endfacet
facet normal 0.0742368 -0.74231786 0.66592276
 outer loop
  vertex -0.4222473 -9.901083 6.82747
  vertex -4.912219 -5.7974195 11.902448
  vertex -1.211011 -9.975108 6.8328834
 endloop
endfacet
facet normal 0.07423522 -0.7423184 0.6659223
 outer loop
  vertex 0.23218584 -9.839665 6.822979
  vertex -4.912219 -5.7974195 11.902448
  vertex -0.4222473 -9.901083 6.82747
 endloop
endfacet
facet normal 0.09047354 -0.7325924 0.67462796
 outer loop
  vertex 1.7781792 -9.725347 6.739789
  vertex -4.912219 -5.7974195 11.902448
  vertex 0.23218584 -9.839665 6.822979
 endloop
endfacet
facet normal -0.47730902 -0.85486215 -0.20343749
 outer loop
  vertex -7.775979 -8.124307 7.339653
  vertex -3.9711409 -8.502055 9.9217606e-11
  vertex -3.0148335 -9.4466505 1.725565
 endloop
endfacet
facet normal -0.48023868 -0.85248834 -0.20648122
 outer loop
  vertex -3.0148335 -9.4466505 1.725565
  vertex -3.871881 -10.207804 6.861439
  vertex -7.775979 -8.124307 7.339653
 endloop
endfacet
facet normal -0.32550314 -0.74389905 0.58366245
 outer loop
  vertex -3.871881 -10.207804 6.861439
  vertex -4.912219 -5.7974195 11.902448
  vertex -7.775979 -8.124307 7.339653
 endloop
endfacet
facet normal 0.9619171 -0.27312627 0.010842772
 outer loop
  vertex 2.008278 -6.0169935 9.9217606e-11
  vertex 1.9296699 -6.1712074 3.0891132
  vertex 1.1254933 -9.054465 1.8032575
 endloop
endfacet
facet normal 0.9120296 -0.021934234 0.4095373
 outer loop
  vertex 1.1254933 -9.054465 1.8032575
  vertex 1.8846722 -11.156544 9.9217606e-11
  vertex 2.008278 -6.0169935 9.9217606e-11
 endloop
endfacet
facet normal 0.72248507 0.69075805 -0.029474871
 outer loop
  vertex -3.2600691 -0.87491375 9.921761e-11
  vertex -5.3711076 1.7071216 8.765697
  vertex 1.9296699 -6.1712074 3.0891132
 endloop
endfacet
facet normal 0.6974815 0.71460855 0.053423174
 outer loop
  vertex 1.9296699 -6.1712074 3.0891132
  vertex 2.008278 -6.0169935 9.9217606e-11
  vertex -3.2600691 -0.87491375 9.921761e-11
 endloop
endfacet
facet normal 0.96730906 -0.20059958 -0.15515499
 outer loop
  vertex 1.1254933 -9.054465 1.8032575
  vertex 1.9296699 -6.1712074 3.0891132
  vertex 1.7781792 -9.725347 6.739789
 endloop
endfacet
facet normal -0.8591579 0.15212719 0.48857436
 outer loop
  vertex -8.305778 -1.1722971 4.501643
  vertex -5.1655293 -0.95411265 9.955833
  vertex -5.3711076 1.7071216 8.765697
 endloop
endfacet
facet normal -0.9353879 -0.093807034 -0.34095412
 outer loop
  vertex -4.912219 -5.7974195 11.902448
  vertex -6.7876377 -7.027584 17.386007
  vertex -6.8910685 1.768997 15.249552
 endloop
endfacet
facet normal -0.96025664 -0.14586715 -0.2379704
 outer loop
  vertex -6.8910685 1.768997 15.249552
  vertex -5.1655293 -0.95411265 9.955833
  vertex -4.912219 -5.7974195 11.902448
 endloop
endfacet
facet normal -0.85747284 0.5145255 0.0019761857
 outer loop
  vertex -6.7876377 -7.027584 17.386007
  vertex -5.037409 -4.1401725 25.040627
  vertex -2.8254676 -0.4409802 21.676025
 endloop
endfacet
facet normal -0.8180266 0.12664904 0.5610637
 outer loop
  vertex -2.8254676 -0.4409802 21.676025
  vertex -6.8910685 1.768997 15.249552
  vertex -6.7876377 -7.027584 17.386007
 endloop
endfacet
facet normal -0.28492653 -0.6808803 -0.674699
 outer loop
  vertex 1.9296699 -6.1712074 3.0891132
  vertex 7.1055107 -11.031597 5.8082657
  vertex 1.7781792 -9.725347 6.739789
 endloop
endfacet
facet normal -0.95934206 -0.17019863 -0.22515605
 outer loop
  vertex -5.1655293 -0.95411265 9.955833
  vertex -6.8910685 1.768997 15.249552
  vertex -7.1208477 9.072383 10.70786
 endloop
endfacet
facet normal -0.96110517 -0.17117368 -0.21674047
 outer loop
  vertex -7.1208477 9.072383 10.70786
  vertex -5.3711076 1.7071216 8.765697
  vertex -5.1655293 -0.95411265 9.955833
 endloop
endfacet
facet normal -0.7602397 0.28623185 0.58318686
 outer loop
  vertex -2.8254676 -0.4409802 21.676025
  vertex -0.44468546 0.2789532 24.426254
  vertex -3.1708436 6.9665375 17.590137
 endloop
endfacet
facet normal -0.76288646 0.28463084 0.58050805
 outer loop
  vertex -3.1708436 6.9665375 17.590137
  vertex -6.8910685 1.768997 15.249552
  vertex -2.8254676 -0.4409802 21.676025
 endloop
endfacet
facet normal -0.77544194 0.30641705 0.5520855
 outer loop
  vertex -6.8910685 1.768997 15.249552
  vertex -3.1708436 6.9665375 17.590137
  vertex -2.21161 16.221102 13.8010025
 endloop
endfacet
facet normal -0.7862749 0.30826107 0.5354875
 outer loop
  vertex -2.21161 16.221102 13.8010025
  vertex -7.1208477 9.072383 10.70786
  vertex -6.8910685 1.768997 15.249552
 endloop
endfacet
facet normal -0.23496853 0.5901564 0.77233756
 outer loop
  vertex -2.8254676 -0.4409802 21.676025
  vertex 7.1055107 -4.910136 28.11229
  vertex 7.1055107 -0.97096694 25.102303
 endloop
endfacet
facet normal -0.18436326 -0.899917 0.3951704
 outer loop
  vertex 7.1055107 -0.97096694 25.102303
  vertex -0.44468546 0.2789532 24.426254
  vertex -2.8254676 -0.4409802 21.676025
 endloop
endfacet
facet normal -0.5133732 0.74702036 0.42238423
 outer loop
  vertex -2.21161 16.221102 13.8010025
  vertex -3.5303254 17.82723 9.357645
  vertex -9.854742 13.299908 9.677772
 endloop
endfacet
facet normal -0.45108825 -0.07501992 0.88932073
 outer loop
  vertex -9.854742 13.299908 9.677772
  vertex -7.1208477 9.072383 10.70786
  vertex -2.21161 16.221102 13.8010025
 endloop
endfacet
facet normal -0.060869437 0.8344699 0.5476814
 outer loop
  vertex -2.21161 16.221102 13.8010025
  vertex 7.1055107 18.099066 11.975166
  vertex 7.1055107 20.237629 8.7167635
 endloop
endfacet
facet normal -0.18235976 0.9061352 0.3816597
 outer loop
  vertex 7.1055107 20.237629 8.7167635
  vertex -3.5303254 17.82723 9.357645
  vertex -2.21161 16.221102 13.8010025
 endloop
endfacet
facet normal -0.7407976 0.0072850096 -0.6716887
 outer loop
  vertex -3.1708436 6.9665375 17.590137
  vertex -6.824072 9.547404 21.647232
  vertex -2.65184 18.881947 17.146967
 endloop
endfacet
facet normal -0.98654103 0.037047695 -0.1592614
 outer loop
  vertex -2.65184 18.881947 17.146967
  vertex -2.21161 16.221102 13.8010025
  vertex -3.1708436 6.9665375 17.590137
 endloop
endfacet
facet normal -0.2825011 0.73234946 -0.6195623
 outer loop
  vertex -2.21161 16.221102 13.8010025
  vertex -2.65184 18.881947 17.146967
  vertex 7.1055107 21.718647 16.051022
 endloop
endfacet
facet normal -0.27037522 0.7198703 -0.639284
 outer loop
  vertex 7.1055107 21.718647 16.051022
  vertex 7.1055107 18.099066 11.975166
  vertex -2.21161 16.221102 13.8010025
 endloop
endfacet
facet normal -0.7159414 -0.59987265 -0.35718432
 outer loop
  vertex -0.44468546 0.2789532 24.426254
  vertex -2.2630105 1.2657859 26.413576
  vertex -6.824072 9.547404 21.647232
 endloop
endfacet
facet normal -0.745645 -0.6000791 -0.2896869
 outer loop
  vertex -6.824072 9.547404 21.647232
  vertex -3.1708436 6.9665375 17.590137
  vertex -0.44468546 0.2789532 24.426254
 endloop
endfacet
facet normal -0.24478905 -0.9639068 -0.10469958
 outer loop
  vertex 7.1055107 -0.97096694 25.102303
  vertex 7.1055107 -1.2542672 27.71048
  vertex -2.2630105 1.2657859 26.413576
 endloop
endfacet
facet normal -0.18184555 -0.9368262 0.29881242
 outer loop
  vertex -2.2630105 1.2657859 26.413576
  vertex -0.44468546 0.2789532 24.426254
  vertex 7.1055107 -0.97096694 25.102303
 endloop
endfacet
facet normal -0.92212665 0.38169116 -0.063199855
 outer loop
  vertex -6.824072 9.547404 21.647232
  vertex -6.122755 11.8852005 25.533525
  vertex -2.434156 20.116459 21.4266
 endloop
endfacet
facet normal -0.9221267 0.3816912 -0.06319939
 outer loop
  vertex -2.434156 20.116459 21.4266
  vertex -2.65184 18.881947 17.146967
  vertex -6.824072 9.547404 21.647232
 endloop
endfacet
facet normal -0.35072434 0.9043907 -0.24304289
 outer loop
  vertex -2.65184 18.881947 17.146967
  vertex -2.434156 20.116459 21.4266
  vertex 7.1055107 23.385216 19.823753
 endloop
endfacet
facet normal -0.29724747 0.8733819 -0.38580823
 outer loop
  vertex 7.1055107 23.385216 19.823753
  vertex 7.1055107 21.718647 16.051022
  vertex -2.65184 18.881947 17.146967
 endloop
endfacet
facet normal -0.8948595 -0.297685 0.33258122
 outer loop
  vertex -2.2630105 1.2657859 26.413576
  vertex -1.6125442 2.6195462 29.37547
  vertex -6.122755 11.8852005 25.533525
 endloop
endfacet
facet normal -0.8927475 -0.2963543 0.33937603
 outer loop
  vertex -6.122755 11.8852005 25.533525
  vertex -6.824072 9.547404 21.647232
  vertex -2.2630105 1.2657859 26.413576
 endloop
endfacet
facet normal -0.3028965 -0.8590419 0.41267502
 outer loop
  vertex 7.1055107 -1.2542672 27.71048
  vertex 7.1055107 0.58642316 31.54214
  vertex -1.6125442 2.6195462 29.37547
 endloop
endfacet
facet normal -0.28953668 -0.8449157 0.44976205
 outer loop
  vertex -1.6125442 2.6195462 29.37547
  vertex -2.2630105 1.2657859 26.413576
  vertex 7.1055107 -1.2542672 27.71048
 endloop
endfacet
facet normal -0.67260474 0.56220603 0.48117277
 outer loop
  vertex -6.122755 11.8852005 25.533525
  vertex 3.6750574 16.651894 33.659904
  vertex 4.549016 18.674686 32.518116
 endloop
endfacet
facet normal -0.6733654 0.54887307 0.49529532
 outer loop
  vertex 4.549016 18.674686 32.518116
  vertex -2.434156 20.116459 21.4266
  vertex -6.122755 11.8852005 25.533525
 endloop
endfacet
facet normal -0.2476807 0.92850834 0.27663437
 outer loop
  vertex -2.434156 20.116459 21.4266
  vertex 4.549016 18.674686 32.518116
  vertex 7.1055107 19.461746 32.165314
 endloop
endfacet
facet normal -0.26573083 0.9187384 0.29207346
 outer loop
  vertex 7.1055107 19.461746 32.165314
  vertex 7.1055107 23.385216 19.823753
  vertex -2.434156 20.116459 21.4266
 endloop
endfacet
facet normal -0.6434369 0.0087455325 0.76544917
 outer loop
  vertex -1.6125442 2.6195462 29.37547
  vertex 4.859583 14.884363 34.67581
  vertex 3.6750574 16.651894 33.659904
 endloop
endfacet
facet normal -0.6403364 0.0067786565 0.7680646
 outer loop
  vertex 3.6750574 16.651894 33.659904
  vertex -6.122755 11.8852005 25.533525
  vertex -1.6125442 2.6195462 29.37547
 endloop
endfacet
facet normal -0.33051753 -0.25130254 0.9097281
 outer loop
  vertex 7.1055107 0.58642316 31.54214
  vertex 7.1055107 13.794237 35.190655
  vertex 4.859583 14.884363 34.67581
 endloop
endfacet
facet normal -0.2877246 -0.24794132 0.9250619
 outer loop
  vertex 4.859583 14.884363 34.67581
  vertex -1.6125442 2.6195462 29.37547
  vertex 7.1055107 0.58642316 31.54214
 endloop
endfacet
facet normal 0.27979672 0.37740162 0.88276947
 outer loop
  vertex 3.6750574 16.651894 33.659904
  vertex 7.1055107 16.312054 32.7179
  vertex 4.549016 18.674686 32.518116
 endloop
endfacet
facet normal 0.082444735 0.1722136 0.98160344
 outer loop
  vertex 4.549016 18.674686 32.518116
  vertex 7.1055107 16.312054 32.7179
  vertex 7.1055107 19.461746 32.165314
 endloop
endfacet
facet normal 0.26567394 0.6080412 0.7481332
 outer loop
  vertex 4.859583 14.884363 34.67581
  vertex 7.1055107 16.312054 32.7179
  vertex 3.6750574 16.651894 33.659904
 endloop
endfacet
facet normal 0.17386314 0.69002193 0.7025962
 outer loop
  vertex 7.1055107 13.794237 35.190655
  vertex 7.1055107 16.312054 32.7179
  vertex 4.859583 14.884363 34.67581
 endloop
endfacet
facet normal -0.73463166 -0.33073404 0.59239465
 outer loop
  vertex -7.1208477 9.072383 10.70786
  vertex -9.854742 13.299908 9.677772
  vertex -9.822516 5.2609596 5.2295885
 endloop
endfacet
facet normal -0.73463166 -0.3307339 0.5923946
 outer loop
  vertex -9.822516 5.2609596 5.2295885
  vertex -5.3711076 1.7071216 8.765697
  vertex -7.1208477 9.072383 10.70786
 endloop
endfacet
facet normal -0.4743867 -0.8433843 -0.25230962
 outer loop
  vertex -9.822516 5.2609596 5.2295885
  vertex -9.125952 5.828699 2.0221658
  vertex -8.24185 5.3217173 2.054564
 endloop
endfacet
facet normal -0.47428042 -0.8434595 -0.25225812
 outer loop
  vertex -9.822516 5.2609596 5.2295885
  vertex -8.24185 5.3217173 2.054564
  vertex -7.1391077 4.711954 2.0200815
 endloop
endfacet
facet normal -0.47428104 -0.8434589 -0.2522588
 outer loop
  vertex -9.822516 5.2609596 5.2295885
  vertex -7.1391077 4.711954 2.0200815
  vertex -6.036366 4.10219 1.9855988
 endloop
endfacet
facet normal -0.4742728 -0.8434675 -0.25224605
 outer loop
  vertex -9.822516 5.2609596 5.2295885
  vertex -6.036366 4.10219 1.9855988
  vertex -5.309527 3.7013738 1.9592572
 endloop
endfacet
facet normal -0.473906 -0.84388393 -0.25154132
 outer loop
  vertex -9.822516 5.2609596 5.2295885
  vertex -5.309527 3.7013738 1.9592572
  vertex -5.3711076 1.7071216 8.765697
 endloop
endfacet
facet normal -0.4841996 -0.8748349 -0.014652101
 outer loop
  vertex -7.1391077 4.711954 2.0200815
  vertex -8.24185 5.3217173 2.054564
  vertex -8.095858 5.275325 9.9217606e-11
 endloop
endfacet
facet normal -0.9047573 -0.21210738 0.36935705
 outer loop
  vertex -8.095858 5.275325 9.9217606e-11
  vertex -7.6183934 3.2386715 9.9217606e-11
  vertex -7.1391077 4.711954 2.0200815
 endloop
endfacet
facet normal -0.48265198 -0.8671772 -0.12268174
 outer loop
  vertex -5.309527 3.7013738 1.9592572
  vertex -6.036366 4.10219 1.9855988
  vertex -5.770444 4.235091 9.9217606e-11
 endloop
endfacet
facet normal -0.8919669 -0.44323495 0.089095235
 outer loop
  vertex -5.770444 4.235091 9.9217606e-11
  vertex -4.902212 2.48786 9.9217606e-11
  vertex -5.309527 3.7013738 1.9592572
 endloop
endfacet
facet normal -0.37150225 -0.7059524 0.60300684
 outer loop
  vertex -6.036366 4.10219 1.9855988
  vertex -7.1391077 4.711954 2.0200815
  vertex -7.6183934 3.2386715 9.9217606e-11
 endloop
endfacet
facet normal 0.4746005 -0.88018906 0.0046477458
 outer loop
  vertex -7.6183934 3.2386715 9.9217606e-11
  vertex -5.770444 4.235091 9.9217606e-11
  vertex -6.036366 4.10219 1.9855988
 endloop
endfacet
facet normal 0.34321988 -0.93814886 0.04557194
 outer loop
  vertex -10.111201 4.5380154 9.9217606e-11
  vertex -8.095858 5.275325 9.9217606e-11
  vertex -8.24185 5.3217173 2.054564
 endloop
endfacet
facet normal -0.40581828 -0.66781336 0.62396866
 outer loop
  vertex -8.24185 5.3217173 2.054564
  vertex -9.125952 5.828699 2.0221658
  vertex -10.111201 4.5380154 9.9217606e-11
 endloop
endfacet
facet normal -0.9208398 0.28356588 0.26766503
 outer loop
  vertex -9.125952 5.828699 2.0221658
  vertex -8.152399 10.898947 9.9217606e-11
  vertex -10.111201 4.5380154 9.9217606e-11
 endloop
endfacet
facet normal -0.97563356 0.1032192 -0.19361034
 outer loop
  vertex -9.125952 5.828699 2.0221658
  vertex -9.822516 5.2609596 5.2295885
  vertex -9.854742 13.299908 9.677772
 endloop
endfacet
facet normal -0.97419804 0.108024955 -0.1981637
 outer loop
  vertex -9.854742 13.299908 9.677772
  vertex -8.152399 10.898947 9.9217606e-11
  vertex -9.125952 5.828699 2.0221658
 endloop
endfacet
facet normal 0.7486208 -0.482636 0.45456508
 outer loop
  vertex -4.902212 2.48786 9.9217606e-11
  vertex -2.084537 6.8583794 9.9217606e-11
  vertex -5.309527 3.7013738 1.9592572
 endloop
endfacet
facet normal 0.89160335 -0.44713154 0.071531996
 outer loop
  vertex -2.084537 6.8583794 9.9217606e-11
  vertex -2.4097552 7.0002594 4.940512
  vertex -5.3711076 1.7071216 8.765697
 endloop
endfacet
facet normal 0.6122552 -0.76023984 -0.2172071
 outer loop
  vertex -5.3711076 1.7071216 8.765697
  vertex -5.309527 3.7013738 1.9592572
  vertex -2.084537 6.8583794 9.9217606e-11
 endloop
endfacet
facet normal 0 -0 -1
 outer loop
  vertex -2.084537 6.8583794 9.9217606e-11
  vertex -8.152399 10.898947 9.9217606e-11
  vertex -0.64456344 16.03729 9.9217606e-11
 endloop
endfacet
facet normal -0 -0 -1
 outer loop
  vertex -5.770444 4.235091 9.9217606e-11
  vertex -8.152399 10.898947 9.9217606e-11
  vertex -2.084537 6.8583794 9.9217606e-11
 endloop
endfacet
facet normal 0 0 -1
 outer loop
  vertex -2.084537 6.8583794 9.9217606e-11
  vertex -4.902212 2.48786 9.9217606e-11
  vertex -5.770444 4.235091 9.9217606e-11
 endloop
endfacet
facet normal 0 0 -1
 outer loop
  vertex -5.770444 4.235091 9.9217606e-11
  vertex -7.6183934 3.2386715 9.9217606e-11
  vertex -8.095858 5.275325 9.9217606e-11
 endloop
endfacet
facet normal -0 -0 -1
 outer loop
  vertex -8.095858 5.275325 9.9217606e-11
  vertex -8.152399 10.898947 9.9217606e-11
  vertex -5.770444 4.235091 9.9217606e-11
 endloop
endfacet
facet normal -0 0 -1
 outer loop
  vertex -10.111201 4.5380154 9.9217606e-11
  vertex -8.152399 10.898947 9.9217606e-11
  vertex -8.095858 5.275325 9.9217606e-11
 endloop
endfacet
facet normal -0.3003994 -0.66155595 -0.68709815
 outer loop
  vertex 1.9296699 -6.1712074 3.0891132
  vertex 4.3293076 -4.0524535 9.9217606e-11
  vertex 7.1055107 -5.313072 9.9217606e-11
 endloop
endfacet
facet normal -0.28785884 -0.6824284 -0.67188454
 outer loop
  vertex 7.1055107 -5.313072 9.9217606e-11
  vertex 7.1055107 -11.031597 5.8082657
  vertex 1.9296699 -6.1712074 3.0891132
 endloop
endfacet
facet normal -0.73346466 -0.33633813 -0.59068286
 outer loop
  vertex -5.3711076 1.7071216 8.765697
  vertex 0.87907314 3.471596 9.9217606e-11
  vertex 4.3293076 -4.0524535 9.9217606e-11
 endloop
endfacet
facet normal -0.7154119 -0.17570724 -0.676249
 outer loop
  vertex 4.3293076 -4.0524535 9.9217606e-11
  vertex 1.9296699 -6.1712074 3.0891132
  vertex -5.3711076 1.7071216 8.765697
 endloop
endfacet
facet normal 0.18461365 0.6722396 -0.71694607
 outer loop
  vertex -0.64456344 16.03729 9.9217606e-11
  vertex 4.3125706 19.777395 4.783346
  vertex 7.1055107 20.307047 5.9991527
 endloop
endfacet
facet normal 0.18373773 0.67306167 -0.71639955
 outer loop
  vertex 7.1055107 20.307047 5.9991527
  vertex 7.1055107 13.921614 9.9217606e-11
  vertex -0.64456344 16.03729 9.9217606e-11
 endloop
endfacet
facet normal -0.19676991 0.98012996 0.025036188
 outer loop
  vertex 7.1055107 20.237629 8.7167635
  vertex 7.1055107 20.307047 5.9991527
  vertex 4.3125706 19.777395 4.783346
 endloop
endfacet
facet normal -0.21848477 0.97497624 0.0410579
 outer loop
  vertex 4.3125706 19.777395 4.783346
  vertex -3.5303254 17.82723 9.357645
  vertex 7.1055107 20.237629 8.7167635
 endloop
endfacet
facet normal -0.8174927 0.042272452 -0.57438546
 outer loop
  vertex 0.87907314 3.471596 9.9217606e-11
  vertex -5.3711076 1.7071216 8.765697
  vertex -2.4097552 7.0002594 4.940512
 endloop
endfacet
facet normal -0.7522048 -0.65821797 -0.030612757
 outer loop
  vertex -2.4097552 7.0002594 4.940512
  vertex -2.084537 6.8583794 9.9217606e-11
  vertex 0.87907314 3.471596 9.9217606e-11
 endloop
endfacet
facet normal -0.56224185 0.7628425 -0.31930456
 outer loop
  vertex -9.854742 13.299908 9.677772
  vertex -3.5303254 17.82723 9.357645
  vertex -0.64456344 16.03729 9.9217606e-11
 endloop
endfacet
facet normal -0.5403591 0.7895399 -0.2909276
 outer loop
  vertex -0.64456344 16.03729 9.9217606e-11
  vertex -8.152399 10.898947 9.9217606e-11
  vertex -9.854742 13.299908 9.677772
 endloop
endfacet
facet normal -0.38526738 0.87717223 -0.28659728
 outer loop
  vertex -3.5303254 17.82723 9.357645
  vertex 4.3125706 19.777395 4.783346
  vertex -0.64456344 16.03729 9.9217606e-11
 endloop
endfacet
facet normal -0 0 -1
 outer loop
  vertex -2.084537 6.8583794 9.9217606e-11
  vertex -0.64456344 16.03729 9.9217606e-11
  vertex 7.1055107 13.921614 9.9217606e-11
 endloop
endfacet
facet normal 0 0 -1
 outer loop
  vertex 7.1055107 13.921614 9.9217606e-11
  vertex 0.87907314 3.471596 9.9217606e-11
  vertex -2.084537 6.8583794 9.9217606e-11
 endloop
endfacet
facet normal -0 0 -1
 outer loop
  vertex 0.87907314 3.471596 9.9217606e-11
  vertex 7.1055107 13.921614 9.9217606e-11
  vertex 7.1055107 -5.313072 9.9217606e-11
 endloop
endfacet
facet normal 0 0 -1
 outer loop
  vertex 7.1055107 -5.313072 9.9217606e-11
  vertex 4.3293076 -4.0524535 9.9217606e-11
  vertex 0.87907314 3.471596 9.9217606e-11
 endloop
endfacet
facet normal -0.2796774 -0.68473 -0.6729974
 outer loop
  vertex 7.1055107 -11.031597 5.8082657
  vertex 3.5768323 -17.886747 14.249336
  vertex -3.2059069 -14.986361 14.117087
 endloop
endfacet
facet normal -0.28480566 -0.6790053 -0.67663693
 outer loop
  vertex -3.2059069 -14.986361 14.117087
  vertex 1.7781792 -9.725347 6.739789
  vertex 7.1055107 -11.031597 5.8082657
 endloop
endfacet
facet normal -0.3924972 -0.91925675 -0.030215187
 outer loop
  vertex 3.5768323 -17.886747 14.249336
  vertex 3.5833335 -17.970524 16.713673
  vertex -4.1929607 -14.639983 16.40097
 endloop
endfacet
facet normal -0.392497 -0.9192569 -0.030214284
 outer loop
  vertex -4.1929607 -14.639983 16.40097
  vertex -3.2059069 -14.986361 14.117087
  vertex 3.5768323 -17.886747 14.249336
 endloop
endfacet
facet normal -0.5649848 -0.78710175 0.24751362
 outer loop
  vertex 1.7172632 -13.163325 21.238882
  vertex -0.56529176 -11.469629 21.414639
  vertex -0.6948209 -12.434591 18.050358
 endloop
endfacet
facet normal -0.55581844 -0.7963679 0.23846157
 outer loop
  vertex -0.6948209 -12.434591 18.050358
  vertex 1.7091479 -14.146294 17.937239
  vertex 1.7172632 -13.163325 21.238882
 endloop
endfacet
facet normal -0.18371202 -0.4516271 0.8730881
 outer loop
  vertex 7.1055107 -14.109121 25.965673
  vertex 7.1055107 -6.7508097 29.771948
  vertex 1.1593599 -6.5348263 28.632504
 endloop
endfacet
facet normal -0.20299797 -0.46312186 0.862734
 outer loop
  vertex 1.1593599 -6.5348263 28.632504
  vertex -2.353714 -9.922851 25.987175
  vertex 7.1055107 -14.109121 25.965673
 endloop
endfacet
facet normal -0.13232002 0.7067886 0.69493973
 outer loop
  vertex 7.1055107 -4.910136 28.11229
  vertex -2.8254676 -0.4409802 21.676025
  vertex 1.1593599 -6.5348263 28.632504
 endloop
endfacet
facet normal -0.1171814 0.6650314 0.73756474
 outer loop
  vertex 1.1593599 -6.5348263 28.632504
  vertex 7.1055107 -6.7508097 29.771948
  vertex 7.1055107 -4.910136 28.11229
 endloop
endfacet
facet normal -0.87501985 -0.35162917 0.33271194
 outer loop
  vertex -2.353714 -9.922851 25.987175
  vertex -5.037409 -4.1401725 25.040627
  vertex -6.7876377 -7.027584 17.386007
 endloop
endfacet
facet normal -0.8770543 -0.3425276 0.3368244
 outer loop
  vertex -6.7876377 -7.027584 17.386007
  vertex -4.1929607 -14.639983 16.40097
  vertex -2.353714 -9.922851 25.987175
 endloop
endfacet
facet normal -0.7033935 0.66018814 0.26341835
 outer loop
  vertex -2.8254676 -0.4409802 21.676025
  vertex -5.037409 -4.1401725 25.040627
  vertex -3.4610708 -4.680057 30.602924
 endloop
endfacet
facet normal 0.48378652 0.7767298 0.4032883
 outer loop
  vertex -3.4610708 -4.680057 30.602924
  vertex 1.1593599 -6.5348263 28.632504
  vertex -2.8254676 -0.4409802 21.676025
 endloop
endfacet
facet normal -0.8962762 -0.2540449 -0.36352485
 outer loop
  vertex -6.7876377 -7.027584 17.386007
  vertex -4.912219 -5.7974195 11.902448
  vertex -3.2059069 -14.986361 14.117087
 endloop
endfacet
facet normal -0.8998096 -0.2615102 -0.34922072
 outer loop
  vertex -3.2059069 -14.986361 14.117087
  vertex -4.1929607 -14.639983 16.40097
  vertex -6.7876377 -7.027584 17.386007
 endloop
endfacet
facet normal -0.35658434 -0.80813956 0.4687837
 outer loop
  vertex 7.1055107 -14.109121 25.965673
  vertex -2.353714 -9.922851 25.987175
  vertex -1.0912068 -12.289578 22.867493
 endloop
endfacet
facet normal -0.35549444 -0.8113734 0.46400094
 outer loop
  vertex -1.0912068 -12.289578 22.867493
  vertex 1.9289429 -13.910591 22.346804
  vertex 7.1055107 -14.109121 25.965673
 endloop
endfacet
facet normal -0.3604976 -0.7960631 0.48613262
 outer loop
  vertex -4.1929607 -14.639983 16.40097
  vertex 3.5833335 -17.970524 16.713673
  vertex 1.7532849 -16.520512 17.731035
 endloop
endfacet
facet normal -0.35893327 -0.8212447 0.4435358
 outer loop
  vertex 1.7532849 -16.520512 17.731035
  vertex -2.0543053 -14.823288 17.792282
  vertex -4.1929607 -14.639983 16.40097
 endloop
endfacet
facet normal -0.35926327 -0.80644083 0.46966264
 outer loop
  vertex 7.1055107 -14.109121 25.965673
  vertex 1.9289429 -13.910591 22.346804
  vertex 1.7532849 -16.520512 17.731035
 endloop
endfacet
facet normal -0.3695447 -0.79910773 0.4741978
 outer loop
  vertex 1.7532849 -16.520512 17.731035
  vertex 3.5833335 -17.970524 16.713673
  vertex 7.1055107 -14.109121 25.965673
 endloop
endfacet
facet normal -0.37432155 -0.7993181 0.47007868
 outer loop
  vertex -4.1929607 -14.639983 16.40097
  vertex -2.0543053 -14.823288 17.792282
  vertex -1.0912068 -12.289578 22.867493
 endloop
endfacet
facet normal -0.36083773 -0.8075197 0.46659207
 outer loop
  vertex -1.0912068 -12.289578 22.867493
  vertex -2.353714 -9.922851 25.987175
  vertex -4.1929607 -14.639983 16.40097
 endloop
endfacet
facet normal -0.52297074 -0.6472447 -0.5545952
 outer loop
  vertex -1.0912068 -12.289578 22.867493
  vertex -0.56529176 -11.469629 21.414639
  vertex 1.7172632 -13.163325 21.238882
 endloop
endfacet
facet normal -0.48398155 -0.7655619 -0.423883
 outer loop
  vertex 1.7172632 -13.163325 21.238882
  vertex 1.9289429 -13.910591 22.346804
  vertex -1.0912068 -12.289578 22.867493
 endloop
endfacet
facet normal -0.9799871 -0.19011359 0.05900956
 outer loop
  vertex 1.9289429 -13.910591 22.346804
  vertex 1.7172632 -13.163325 21.238882
  vertex 1.7091479 -14.146294 17.937239
 endloop
endfacet
facet normal -0.9984342 -0.022990061 0.050995883
 outer loop
  vertex 1.7091479 -14.146294 17.937239
  vertex 1.7532849 -16.520512 17.731035
  vertex 1.9289429 -13.910591 22.346804
 endloop
endfacet
facet normal -0.01492572 -0.086791135 0.9961147
 outer loop
  vertex 1.7532849 -16.520512 17.731035
  vertex 1.7091479 -14.146294 17.937239
  vertex -0.6948209 -12.434591 18.050358
 endloop
endfacet
facet normal -0.025463788 -0.09304425 0.99533623
 outer loop
  vertex -0.6948209 -12.434591 18.050358
  vertex -2.0543053 -14.823288 17.792282
  vertex 1.7532849 -16.520512 17.731035
 endloop
endfacet
facet normal 0.85859615 -0.50059617 0.110526755
 outer loop
  vertex -2.0543053 -14.823288 17.792282
  vertex -0.6948209 -12.434591 18.050358
  vertex -0.56529176 -11.469629 21.414639
 endloop
endfacet
facet normal 0.88599694 -0.45961785 0.061324704
 outer loop
  vertex -0.56529176 -11.469629 21.414639
  vertex -1.0912068 -12.289578 22.867493
  vertex -2.0543053 -14.823288 17.792282
 endloop
endfacet
facet normal 0.005789774 -0.9236161 0.38327503
 outer loop
  vertex 3.5833335 -17.970524 16.713673
  vertex 7.1055107 -18.835066 14.577093
  vertex 7.1055107 -14.109121 25.965673
 endloop
endfacet
facet normal -0.13768923 -0.73991525 -0.6584581
 outer loop
  vertex 3.5768323 -17.886747 14.249336
  vertex 7.1055107 -11.031597 5.8082657
  vertex 7.1055107 -18.835066 14.577093
 endloop
endfacet
facet normal -0.25661555 -0.96597826 -0.032162
 outer loop
  vertex 3.5768323 -17.886747 14.249336
  vertex 7.1055107 -18.835066 14.577093
  vertex 3.5833335 -17.970524 16.713673
 endloop
endfacet
facet normal -0.6498519 0.7164671 0.25370735
 outer loop
  vertex -3.4610708 -4.680057 30.602924
  vertex -5.037409 -4.1401725 25.040627
  vertex -5.271984 -6.3225965 30.602924
 endloop
endfacet
facet normal -0.8734487 -0.4396246 -0.20932658
 outer loop
  vertex -5.271984 -6.3225965 30.602924
  vertex -5.037409 -4.1401725 25.040627
  vertex -2.353714 -9.922851 25.987175
 endloop
endfacet
facet normal -0.6853254 -0.28842068 -0.66868734
 outer loop
  vertex -4.912219 -5.7974195 11.902448
  vertex 1.7781792 -9.725347 6.739789
  vertex -3.2059069 -14.986361 14.117087
 endloop
endfacet
facet normal 0.45768166 0.22683594 0.8596936
 outer loop
  vertex 1.1593599 -6.5348263 28.632504
  vertex -3.4610708 -4.680057 30.602924
  vertex -2.4599218 -6.7000523 30.602924
 endloop
endfacet
facet normal 0.33193392 -0.76982856 0.54514575
 outer loop
  vertex -2.4599218 -6.7000523 30.602924
  vertex -2.353714 -9.922851 25.987175
  vertex 1.1593599 -6.5348263 28.632504
 endloop
endfacet
facet normal -0.10955158 -0.8161643 0.5673397
 outer loop
  vertex -5.271984 -6.3225965 30.602924
  vertex -2.353714 -9.922851 25.987175
  vertex -2.4599218 -6.7000523 30.602924
 endloop
endfacet
facet normal -0 0 1
 outer loop
  vertex -2.4599218 -6.7000523 30.602924
  vertex -3.4610708 -4.680057 30.602924
  vertex -5.271984 -6.3225965 30.602924
 endloop
endfacet
facet normal 0 0 -1
 outer loop
  vertex 17.275791 -11.032445 9.9217606e-11
  vertex 15.432454 -9.940593 9.9217606e-11
  vertex 15.192719 -7.008459 9.9217606e-11
 endloop
endfacet
facet normal 0 0 -1
 outer loop
  vertex 15.192719 -7.008459 9.9217606e-11
  vertex 18.182163 -8.502055 9.9217606e-11
  vertex 17.275791 -11.032445 9.9217606e-11
 endloop
endfacet
facet normal 0 -0 -1
 outer loop
  vertex 15.432454 -9.940593 9.9217606e-11
  vertex 14.5980425 -11.701051 9.9217606e-11
  vertex 15.192719 -7.008459 9.9217606e-11
 endloop
endfacet
facet normal 0 -0 -1
 outer loop
  vertex 14.5980425 -11.701051 9.9217606e-11
  vertex 13.950267 -9.914869 9.9217606e-11
  vertex 15.192719 -7.008459 9.9217606e-11
 endloop
endfacet
facet normal 0 0 -1
 outer loop
  vertex 15.192719 -7.008459 9.9217606e-11
  vertex 13.950267 -9.914869 9.9217606e-11
  vertex 12.326349 -11.156544 9.9217606e-11
 endloop
endfacet
facet normal 0 0 -1
 outer loop
  vertex 20.03173 -1.9537523 9.9217606e-11
  vertex 18.182163 -8.502055 9.9217606e-11
  vertex 15.192719 -7.008459 9.9217606e-11
 endloop
endfacet
facet normal 0 0 -1
 outer loop
  vertex 15.192719 -7.008459 9.9217606e-11
  vertex 12.326349 -11.156544 9.9217606e-11
  vertex 12.202744 -6.0169935 9.9217606e-11
 endloop
endfacet
facet normal -1.9309888e-18 1.8485894e-18 -1
 outer loop
  vertex 20.03173 -1.9537523 9.9217606e-11
  vertex 15.192719 -7.008459 9.9217606e-11
  vertex 17.471092 -0.87491375 9.921761e-11
 endloop
endfacet
facet normal 3.3399589e-19 1.0072358e-18 -1
 outer loop
  vertex 17.471092 -0.87491375 9.921761e-11
  vertex 15.192719 -7.008459 9.9217606e-11
  vertex 12.202744 -6.0169935 9.9217606e-11
 endloop
endfacet
facet normal 0.3647323 0.8656972 -0.3428392
 outer loop
  vertex 20.03173 -1.9537523 9.9217606e-11
  vertex 17.471092 -0.87491375 9.921761e-11
  vertex 19.58213 1.7071216 8.765697
 endloop
endfacet
facet normal 0.35191658 0.87001336 -0.34529912
 outer loop
  vertex 19.58213 1.7071216 8.765697
  vertex 22.5168 -1.1722971 4.501643
  vertex 20.03173 -1.9537523 9.9217606e-11
 endloop
endfacet
facet normal 0.86620134 -0.24465849 -0.43570325
 outer loop
  vertex 18.182163 -8.502055 9.9217606e-11
  vertex 20.03173 -1.9537523 9.9217606e-11
  vertex 22.5168 -1.1722971 4.501643
 endloop
endfacet
facet normal 0.86601245 -0.24413656 -0.43637124
 outer loop
  vertex 22.5168 -1.1722971 4.501643
  vertex 21.987 -8.124307 7.339653
  vertex 18.182163 -8.502055 9.9217606e-11
 endloop
endfacet
facet normal 0.8610613 0.13456446 0.49037325
 outer loop
  vertex 21.987 -8.124307 7.339653
  vertex 22.5168 -1.1722971 4.501643
  vertex 19.376549 -0.95411265 9.955833
 endloop
endfacet
facet normal 0.86960036 0.1443047 0.4721984
 outer loop
  vertex 19.376549 -0.95411265 9.955833
  vertex 19.123241 -5.7974195 11.902448
  vertex 21.987 -8.124307 7.339653
 endloop
endfacet
facet normal 0.89209145 -0.31954235 0.31947678
 outer loop
  vertex 17.275791 -11.032445 9.9217606e-11
  vertex 18.182163 -8.502055 9.9217606e-11
  vertex 17.225853 -9.4466505 1.725565
 endloop
endfacet
facet normal -0.40263438 -0.67975396 0.61304164
 outer loop
  vertex 15.432454 -9.940593 9.9217606e-11
  vertex 17.275791 -11.032445 9.9217606e-11
  vertex 17.225853 -9.4466505 1.725565
 endloop
endfacet
facet normal -0.08445593 -0.93128854 0.35435694
 outer loop
  vertex 17.225853 -9.4466505 1.725565
  vertex 15.422959 -9.266748 1.7686732
  vertex 15.432454 -9.940593 9.9217606e-11
 endloop
endfacet
facet normal 0.8911439 -0.4223792 0.1657056
 outer loop
  vertex 14.5980425 -11.701051 9.9217606e-11
  vertex 15.432454 -9.940593 9.9217606e-11
  vertex 15.422959 -9.266748 1.7686732
 endloop
endfacet
facet normal -0.040469825 -0.5783023 0.81481814
 outer loop
  vertex 15.422959 -9.266748 1.7686732
  vertex 13.95121 -9.133084 1.790441
  vertex 14.5980425 -11.701051 9.9217606e-11
 endloop
endfacet
facet normal -0.9297742 -0.33719143 0.14772235
 outer loop
  vertex 13.950267 -9.914869 9.9217606e-11
  vertex 14.5980425 -11.701051 9.9217606e-11
  vertex 13.95121 -9.133084 1.790441
 endloop
endfacet
facet normal 0.57391995 -0.7505983 0.32744175
 outer loop
  vertex 12.326349 -11.156544 9.9217606e-11
  vertex 13.950267 -9.914869 9.9217606e-11
  vertex 13.95121 -9.133084 1.790441
 endloop
endfacet
facet normal -0.04682915 -0.6405876 0.7664558
 outer loop
  vertex 13.95121 -9.133084 1.790441
  vertex 13.085528 -9.054465 1.8032575
  vertex 12.326349 -11.156544 9.9217606e-11
 endloop
endfacet
facet normal -0.10151868 -0.9864021 -0.12924708
 outer loop
  vertex 15.422959 -9.266748 1.7686732
  vertex 17.225853 -9.4466505 1.725565
  vertex 18.082901 -10.207804 6.861439
 endloop
endfacet
facet normal -0.08481413 -0.98678803 -0.13804315
 outer loop
  vertex 18.082901 -10.207804 6.861439
  vertex 15.422032 -9.975108 6.8328834
  vertex 15.422959 -9.266748 1.7686732
 endloop
endfacet
facet normal -0.091606386 -0.98619217 -0.13796103
 outer loop
  vertex 13.95121 -9.133084 1.790441
  vertex 15.422959 -9.266748 1.7686732
  vertex 15.422032 -9.975108 6.8328834
 endloop
endfacet
facet normal -0.09160695 -0.9861922 -0.1379609
 outer loop
  vertex 15.422032 -9.975108 6.8328834
  vertex 14.633269 -9.901083 6.82747
  vertex 13.95121 -9.133084 1.790441
 endloop
endfacet
facet normal -0.09160595 -0.9861923 -0.13796103
 outer loop
  vertex 13.95121 -9.133084 1.790441
  vertex 14.633269 -9.901083 6.82747
  vertex 13.978836 -9.839665 6.822979
 endloop
endfacet
facet normal -0.091605976 -0.9861922 -0.13796102
 outer loop
  vertex 13.085528 -9.054465 1.8032575
  vertex 13.95121 -9.133084 1.790441
  vertex 13.978836 -9.839665 6.822979
 endloop
endfacet
facet normal -0.06534029 -0.98758477 -0.14285308
 outer loop
  vertex 13.978836 -9.839665 6.822979
  vertex 12.432843 -9.725347 6.739789
  vertex 13.085528 -9.054465 1.8032575
 endloop
endfacet
facet normal -0.07213416 -0.74322826 0.66513795
 outer loop
  vertex 15.422032 -9.975108 6.8328834
  vertex 18.082901 -10.207804 6.861439
  vertex 19.123241 -5.7974195 11.902448
 endloop
endfacet
facet normal -0.07423673 -0.7423178 0.66592276
 outer loop
  vertex 14.633269 -9.901083 6.82747
  vertex 15.422032 -9.975108 6.8328834
  vertex 19.123241 -5.7974195 11.902448
 endloop
endfacet
facet normal -0.074235186 -0.74231863 0.6659221
 outer loop
  vertex 13.978836 -9.839665 6.822979
  vertex 14.633269 -9.901083 6.82747
  vertex 19.123241 -5.7974195 11.902448
 endloop
endfacet
facet normal -0.09047351 -0.73259246 0.67462784
 outer loop
  vertex 12.432843 -9.725347 6.739789
  vertex 13.978836 -9.839665 6.822979
  vertex 19.123241 -5.7974195 11.902448
 endloop
endfacet
facet normal 0.48023868 -0.85248834 -0.20648128
 outer loop
  vertex 21.987 -8.124307 7.339653
  vertex 18.082901 -10.207804 6.861439
  vertex 17.225853 -9.4466505 1.725565
 endloop
endfacet
facet normal 0.4773086 -0.8548625 -0.20343715
 outer loop
  vertex 17.225853 -9.4466505 1.725565
  vertex 18.182163 -8.502055 9.9217606e-11
  vertex 21.987 -8.124307 7.339653
 endloop
endfacet
facet normal 0.32550317 -0.7438992 0.5836624
 outer loop
  vertex 18.082901 -10.207804 6.861439
  vertex 21.987 -8.124307 7.339653
  vertex 19.123241 -5.7974195 11.902448
 endloop
endfacet
facet normal -0.9120296 -0.021934234 0.4095374
 outer loop
  vertex 12.202744 -6.0169935 9.9217606e-11
  vertex 12.326349 -11.156544 9.9217606e-11
  vertex 13.085528 -9.054465 1.8032575
 endloop
endfacet
facet normal -0.9619171 -0.27312627 0.010842921
 outer loop
  vertex 13.085528 -9.054465 1.8032575
  vertex 12.281352 -6.1712074 3.0891132
  vertex 12.202744 -6.0169935 9.9217606e-11
 endloop
endfacet
facet normal -0.69748133 0.7146087 0.05342328
 outer loop
  vertex 17.471092 -0.87491375 9.921761e-11
  vertex 12.202744 -6.0169935 9.9217606e-11
  vertex 12.281352 -6.1712074 3.0891132
 endloop
endfacet
facet normal -0.72248495 0.69075805 -0.029474942
 outer loop
  vertex 12.281352 -6.1712074 3.0891132
  vertex 19.58213 1.7071216 8.765697
  vertex 17.471092 -0.87491375 9.921761e-11
 endloop
endfacet
facet normal -0.96730906 -0.20059957 -0.15515484
 outer loop
  vertex 13.085528 -9.054465 1.8032575
  vertex 12.432843 -9.725347 6.739789
  vertex 12.281352 -6.1712074 3.0891132
 endloop
endfacet
facet normal 0.85915786 0.15212631 0.4885748
 outer loop
  vertex 22.5168 -1.1722971 4.501643
  vertex 19.58213 1.7071216 8.765697
  vertex 19.376549 -0.95411265 9.955833
 endloop
endfacet
facet normal 0.96025664 -0.14586674 -0.23797078
 outer loop
  vertex 19.123241 -5.7974195 11.902448
  vertex 19.376549 -0.95411265 9.955833
  vertex 21.102089 1.768997 15.249552
 endloop
endfacet
facet normal 0.9353879 -0.09380675 -0.34095418
 outer loop
  vertex 21.102089 1.768997 15.249552
  vertex 20.998661 -7.027584 17.386007
  vertex 19.123241 -5.7974195 11.902448
 endloop
endfacet
facet normal 0.8180264 0.12664934 0.56106377
 outer loop
  vertex 20.998661 -7.027584 17.386007
  vertex 21.102089 1.768997 15.249552
  vertex 17.036488 -0.4409802 21.676025
 endloop
endfacet
facet normal 0.85747254 0.51452583 0.0019759592
 outer loop
  vertex 17.036488 -0.4409802 21.676025
  vertex 19.248432 -4.1401725 25.040627
  vertex 20.998661 -7.027584 17.386007
 endloop
endfacet
facet normal 0.28492653 -0.6808804 -0.674699
 outer loop
  vertex 12.281352 -6.1712074 3.0891132
  vertex 12.432843 -9.725347 6.739789
  vertex 7.1055107 -11.031597 5.8082657
 endloop
endfacet
facet normal 0.96110564 -0.17117392 -0.21673831
 outer loop
  vertex 19.376549 -0.95411265 9.955833
  vertex 19.58213 1.7071216 8.765697
  vertex 21.331867 9.072383 10.70786
 endloop
endfacet
facet normal 0.95934206 -0.17019862 -0.22515623
 outer loop
  vertex 21.331867 9.072383 10.70786
  vertex 21.102089 1.768997 15.249552
  vertex 19.376549 -0.95411265 9.955833
 endloop
endfacet
facet normal 0.7628866 0.28463057 0.58050805
 outer loop
  vertex 17.036488 -0.4409802 21.676025
  vertex 21.102089 1.768997 15.249552
  vertex 17.381866 6.9665375 17.590137
 endloop
endfacet
facet normal 0.76024 0.28623146 0.5831867
 outer loop
  vertex 17.381866 6.9665375 17.590137
  vertex 14.655707 0.2789532 24.426254
  vertex 17.036488 -0.4409802 21.676025
 endloop
endfacet
facet normal 0.7862751 0.3082611 0.53548735
 outer loop
  vertex 21.102089 1.768997 15.249552
  vertex 21.331867 9.072383 10.70786
  vertex 16.42263 16.221102 13.8010025
 endloop
endfacet
facet normal 0.77544224 0.3064171 0.55208504
 outer loop
  vertex 16.42263 16.221102 13.8010025
  vertex 17.381866 6.9665375 17.590137
  vertex 21.102089 1.768997 15.249552
 endloop
endfacet
facet normal 0.18436323 -0.899917 0.39517024
 outer loop
  vertex 17.036488 -0.4409802 21.676025
  vertex 14.655707 0.2789532 24.426254
  vertex 7.1055107 -0.97096694 25.102303
 endloop
endfacet
facet normal 0.23496857 0.5901564 0.77233756
 outer loop
  vertex 7.1055107 -0.97096694 25.102303
  vertex 7.1055107 -4.910136 28.11229
  vertex 17.036488 -0.4409802 21.676025
 endloop
endfacet
facet normal 0.45108804 -0.07502018 0.8893209
 outer loop
  vertex 16.42263 16.221102 13.8010025
  vertex 21.331867 9.072383 10.70786
  vertex 24.065765 13.299908 9.677772
 endloop
endfacet
facet normal 0.51337314 0.7470203 0.42238444
 outer loop
  vertex 24.065765 13.299908 9.677772
  vertex 17.741348 17.82723 9.357645
  vertex 16.42263 16.221102 13.8010025
 endloop
endfacet
facet normal 0.1823597 0.9061351 0.38165972
 outer loop
  vertex 16.42263 16.221102 13.8010025
  vertex 17.741348 17.82723 9.357645
  vertex 7.1055107 20.237629 8.7167635
 endloop
endfacet
facet normal 0.060869444 0.83446985 0.5476814
 outer loop
  vertex 7.1055107 20.237629 8.7167635
  vertex 7.1055107 18.099066 11.975166
  vertex 16.42263 16.221102 13.8010025
 endloop
endfacet
facet normal 0.98654103 0.03704777 -0.1592619
 outer loop
  vertex 17.381866 6.9665375 17.590137
  vertex 16.42263 16.221102 13.8010025
  vertex 16.862862 18.881947 17.146967
 endloop
endfacet
facet normal 0.74079794 0.0072851274 -0.6716884
 outer loop
  vertex 16.862862 18.881947 17.146967
  vertex 21.035091 9.547404 21.647232
  vertex 17.381866 6.9665375 17.590137
 endloop
endfacet
facet normal 0.27037522 0.71987027 -0.639284
 outer loop
  vertex 16.42263 16.221102 13.8010025
  vertex 7.1055107 18.099066 11.975166
  vertex 7.1055107 21.718647 16.051022
 endloop
endfacet
facet normal 0.28250107 0.7323494 -0.6195624
 outer loop
  vertex 7.1055107 21.718647 16.051022
  vertex 16.862862 18.881947 17.146967
  vertex 16.42263 16.221102 13.8010025
 endloop
endfacet
facet normal 0.7456452 -0.600079 -0.2896866
 outer loop
  vertex 14.655707 0.2789532 24.426254
  vertex 17.381866 6.9665375 17.590137
  vertex 21.035091 9.547404 21.647232
 endloop
endfacet
facet normal 0.7159414 -0.5998725 -0.3571847
 outer loop
  vertex 21.035091 9.547404 21.647232
  vertex 16.474033 1.2657859 26.413576
  vertex 14.655707 0.2789532 24.426254
 endloop
endfacet
facet normal 0.18184553 -0.9368262 0.29881236
 outer loop
  vertex 7.1055107 -0.97096694 25.102303
  vertex 14.655707 0.2789532 24.426254
  vertex 16.474033 1.2657859 26.413576
 endloop
endfacet
facet normal 0.244789 -0.9639068 -0.1046996
 outer loop
  vertex 16.474033 1.2657859 26.413576
  vertex 7.1055107 -1.2542672 27.71048
  vertex 7.1055107 -0.97096694 25.102303
 endloop
endfacet
facet normal 0.9221267 0.38169113 -0.063199036
 outer loop
  vertex 21.035091 9.547404 21.647232
  vertex 16.862862 18.881947 17.146967
  vertex 16.645176 20.116459 21.4266
 endloop
endfacet
facet normal 0.92212665 0.38169113 -0.06320071
 outer loop
  vertex 16.645176 20.116459 21.4266
  vertex 20.333778 11.8852005 25.533525
  vertex 21.035091 9.547404 21.647232
 endloop
endfacet
facet normal 0.29724747 0.8733819 -0.38580823
 outer loop
  vertex 16.862862 18.881947 17.146967
  vertex 7.1055107 21.718647 16.051022
  vertex 7.1055107 23.385216 19.823753
 endloop
endfacet
facet normal 0.3507244 0.9043907 -0.24304278
 outer loop
  vertex 7.1055107 23.385216 19.823753
  vertex 16.645176 20.116459 21.4266
  vertex 16.862862 18.881947 17.146967
 endloop
endfacet
facet normal 0.89274764 -0.29635447 0.33937526
 outer loop
  vertex 16.474033 1.2657859 26.413576
  vertex 21.035091 9.547404 21.647232
  vertex 20.333778 11.8852005 25.533525
 endloop
endfacet
facet normal 0.89485925 -0.29768494 0.3325816
 outer loop
  vertex 20.333778 11.8852005 25.533525
  vertex 15.8235655 2.6195462 29.37547
  vertex 16.474033 1.2657859 26.413576
 endloop
endfacet
facet normal 0.28953665 -0.8449156 0.44976217
 outer loop
  vertex 7.1055107 -1.2542672 27.71048
  vertex 16.474033 1.2657859 26.413576
  vertex 15.8235655 2.6195462 29.37547
 endloop
endfacet
facet normal 0.3028965 -0.8590419 0.41267502
 outer loop
  vertex 15.8235655 2.6195462 29.37547
  vertex 7.1055107 0.58642316 31.54214
  vertex 7.1055107 -1.2542672 27.71048
 endloop
endfacet
facet normal 0.67336535 0.54887325 0.4952952
 outer loop
  vertex 20.333778 11.8852005 25.533525
  vertex 16.645176 20.116459 21.4266
  vertex 9.662005 18.674686 32.518116
 endloop
endfacet
facet normal 0.6726047 0.562206 0.48117283
 outer loop
  vertex 9.662005 18.674686 32.518116
  vertex 10.535964 16.651894 33.659904
  vertex 20.333778 11.8852005 25.533525
 endloop
endfacet
facet normal 0.26573086 0.91873837 0.29207343
 outer loop
  vertex 16.645176 20.116459 21.4266
  vertex 7.1055107 23.385216 19.823753
  vertex 7.1055107 19.461746 32.165314
 endloop
endfacet
facet normal 0.2476807 0.92850834 0.27663434
 outer loop
  vertex 7.1055107 19.461746 32.165314
  vertex 9.662005 18.674686 32.518116
  vertex 16.645176 20.116459 21.4266
 endloop
endfacet
facet normal 0.64033633 0.0067786034 0.76806474
 outer loop
  vertex 15.8235655 2.6195462 29.37547
  vertex 20.333778 11.8852005 25.533525
  vertex 10.535964 16.651894 33.659904
 endloop
endfacet
facet normal 0.6434369 0.0087455325 0.76544917
 outer loop
  vertex 10.535964 16.651894 33.659904
  vertex 9.3514385 14.884363 34.67581
  vertex 15.8235655 2.6195462 29.37547
 endloop
endfacet
facet normal 0.2877246 -0.24794132 0.9250619
 outer loop
  vertex 7.1055107 0.58642316 31.54214
  vertex 15.8235655 2.6195462 29.37547
  vertex 9.3514385 14.884363 34.67581
 endloop
endfacet
facet normal 0.33051753 -0.25130254 0.9097281
 outer loop
  vertex 9.3514385 14.884363 34.67581
  vertex 7.1055107 13.794237 35.190655
  vertex 7.1055107 0.58642316 31.54214
 endloop
endfacet
facet normal -0.27979672 0.37740162 0.88276947
 outer loop
  vertex 10.535964 16.651894 33.659904
  vertex 9.662005 18.674686 32.518116
  vertex 7.1055107 16.312054 32.7179
 endloop
endfacet
facet normal -0.08244473 0.1722136 0.98160344
 outer loop
  vertex 9.662005 18.674686 32.518116
  vertex 7.1055107 19.461746 32.165314
  vertex 7.1055107 16.312054 32.7179
 endloop
endfacet
facet normal -0.26567394 0.6080412 0.7481331
 outer loop
  vertex 9.3514385 14.884363 34.67581
  vertex 10.535964 16.651894 33.659904
  vertex 7.1055107 16.312054 32.7179
 endloop
endfacet
facet normal -0.17386317 0.6900219 0.7025962
 outer loop
  vertex 7.1055107 13.794237 35.190655
  vertex 9.3514385 14.884363 34.67581
  vertex 7.1055107 16.312054 32.7179
 endloop
endfacet
facet normal 0.73463166 -0.3307336 0.59239477
 outer loop
  vertex 21.331867 9.072383 10.70786
  vertex 19.58213 1.7071216 8.765697
  vertex 24.033539 5.2609596 5.2295885
 endloop
endfacet
facet normal 0.7346312 -0.3307343 0.592395
 outer loop
  vertex 24.033539 5.2609596 5.2295885
  vertex 24.065765 13.299908 9.677772
  vertex 21.331867 9.072383 10.70786
 endloop
endfacet
facet normal 0.47390586 -0.8438839 -0.25154158
 outer loop
  vertex 24.033539 5.2609596 5.2295885
  vertex 19.58213 1.7071216 8.765697
  vertex 19.520546 3.7013738 1.9592572
 endloop
endfacet
facet normal 0.47427192 -0.8434682 -0.25224498
 outer loop
  vertex 24.033539 5.2609596 5.2295885
  vertex 19.520546 3.7013738 1.9592572
  vertex 20.247387 4.10219 1.9855988
 endloop
endfacet
facet normal 0.47428122 -0.8434588 -0.25225922
 outer loop
  vertex 24.033539 5.2609596 5.2295885
  vertex 20.247387 4.10219 1.9855988
  vertex 21.350128 4.711954 2.0200815
 endloop
endfacet
facet normal 0.47427952 -0.84346014 -0.25225756
 outer loop
  vertex 24.033539 5.2609596 5.2295885
  vertex 21.350128 4.711954 2.0200815
  vertex 22.452873 5.3217173 2.054564
 endloop
endfacet
facet normal 0.47438678 -0.8433843 -0.2523095
 outer loop
  vertex 24.033539 5.2609596 5.2295885
  vertex 22.452873 5.3217173 2.054564
  vertex 23.336975 5.828699 2.0221658
 endloop
endfacet
facet normal 0.9047575 -0.2121068 0.36935687
 outer loop
  vertex 21.350128 4.711954 2.0200815
  vertex 21.829414 3.2386715 9.9217606e-11
  vertex 22.306877 5.275325 9.9217606e-11
 endloop
endfacet
facet normal 0.48419863 -0.8748354 -0.014652919
 outer loop
  vertex 22.306877 5.275325 9.9217606e-11
  vertex 22.452873 5.3217173 2.054564
  vertex 21.350128 4.711954 2.0200815
 endloop
endfacet
facet normal 0.89196664 -0.44323534 0.08909574
 outer loop
  vertex 19.520546 3.7013738 1.9592572
  vertex 19.113232 2.48786 9.9217606e-11
  vertex 19.981464 4.235091 9.9217606e-11
 endloop
endfacet
facet normal 0.48265103 -0.8671777 -0.12268176
 outer loop
  vertex 19.981464 4.235091 9.9217606e-11
  vertex 20.247387 4.10219 1.9855988
  vertex 19.520546 3.7013738 1.9592572
 endloop
endfacet
facet normal -0.47460037 -0.88018906 0.0046478445
 outer loop
  vertex 20.247387 4.10219 1.9855988
  vertex 19.981464 4.235091 9.9217606e-11
  vertex 21.829414 3.2386715 9.9217606e-11
 endloop
endfacet
facet normal 0.3715024 -0.70595235 0.6030069
 outer loop
  vertex 21.829414 3.2386715 9.9217606e-11
  vertex 21.350128 4.711954 2.0200815
  vertex 20.247387 4.10219 1.9855988
 endloop
endfacet
facet normal 0.40581852 -0.6678137 0.62396806
 outer loop
  vertex 24.32222 4.5380154 9.9217606e-11
  vertex 23.336975 5.828699 2.0221658
  vertex 22.452873 5.3217173 2.054564
 endloop
endfacet
facet normal -0.34322003 -0.9381488 0.045572586
 outer loop
  vertex 22.452873 5.3217173 2.054564
  vertex 22.306877 5.275325 9.9217606e-11
  vertex 24.32222 4.5380154 9.9217606e-11
 endloop
endfacet
facet normal 0.92084026 0.28356588 0.2676631
 outer loop
  vertex 23.336975 5.828699 2.0221658
  vertex 24.32222 4.5380154 9.9217606e-11
  vertex 22.363419 10.898947 9.9217606e-11
 endloop
endfacet
facet normal 0.9741978 0.10802546 -0.19816417
 outer loop
  vertex 23.336975 5.828699 2.0221658
  vertex 22.363419 10.898947 9.9217606e-11
  vertex 24.065765 13.299908 9.677772
 endloop
endfacet
facet normal 0.9756336 0.103218965 -0.1936101
 outer loop
  vertex 24.065765 13.299908 9.677772
  vertex 24.033539 5.2609596 5.2295885
  vertex 23.336975 5.828699 2.0221658
 endloop
endfacet
facet normal -0.7486211 -0.48263583 0.45456478
 outer loop
  vertex 19.113232 2.48786 9.9217606e-11
  vertex 19.520546 3.7013738 1.9592572
  vertex 16.295559 6.8583794 9.9217606e-11
 endloop
endfacet
facet normal -0.61225575 -0.7602396 -0.21720666
 outer loop
  vertex 16.295559 6.8583794 9.9217606e-11
  vertex 19.520546 3.7013738 1.9592572
  vertex 19.58213 1.7071216 8.765697
 endloop
endfacet
facet normal -0.8916033 -0.44713166 0.071531996
 outer loop
  vertex 19.58213 1.7071216 8.765697
  vertex 16.620777 7.0002594 4.940512
  vertex 16.295559 6.8583794 9.9217606e-11
 endloop
endfacet
facet normal -0 -0 -1
 outer loop
  vertex 16.295559 6.8583794 9.9217606e-11
  vertex 14.855586 16.03729 9.9217606e-11
  vertex 22.363419 10.898947 9.9217606e-11
 endloop
endfacet
facet normal 0 0 -1
 outer loop
  vertex 19.981464 4.235091 9.9217606e-11
  vertex 19.113232 2.48786 9.9217606e-11
  vertex 16.295559 6.8583794 9.9217606e-11
 endloop
endfacet
facet normal -0 0 -1
 outer loop
  vertex 16.295559 6.8583794 9.9217606e-11
  vertex 22.363419 10.898947 9.9217606e-11
  vertex 19.981464 4.235091 9.9217606e-11
 endloop
endfacet
facet normal -0 0 -1
 outer loop
  vertex 19.981464 4.235091 9.9217606e-11
  vertex 22.363419 10.898947 9.9217606e-11
  vertex 22.306877 5.275325 9.9217606e-11
 endloop
endfacet
facet normal 0 0 -1
 outer loop
  vertex 22.306877 5.275325 9.9217606e-11
  vertex 21.829414 3.2386715 9.9217606e-11
  vertex 19.981464 4.235091 9.9217606e-11
 endloop
endfacet
facet normal 0 -0 -1
 outer loop
  vertex 24.32222 4.5380154 9.9217606e-11
  vertex 22.306877 5.275325 9.9217606e-11
  vertex 22.363419 10.898947 9.9217606e-11
 endloop
endfacet
facet normal 0.28785878 -0.68242836 -0.6718845
 outer loop
  vertex 12.281352 -6.1712074 3.0891132
  vertex 7.1055107 -11.031597 5.8082657
  vertex 7.1055107 -5.313072 9.9217606e-11
 endloop
endfacet
facet normal 0.3003994 -0.66155595 -0.68709815
 outer loop
  vertex 7.1055107 -5.313072 9.9217606e-11
  vertex 9.881714 -4.0524535 9.9217606e-11
  vertex 12.281352 -6.1712074 3.0891132
 endloop
endfacet
facet normal 0.71541184 -0.1757072 -0.676249
 outer loop
  vertex 19.58213 1.7071216 8.765697
  vertex 12.281352 -6.1712074 3.0891132
  vertex 9.881714 -4.0524535 9.9217606e-11
 endloop
endfacet
facet normal 0.73346466 -0.33633813 -0.5906829
 outer loop
  vertex 9.881714 -4.0524535 9.9217606e-11
  vertex 13.331948 3.471596 9.9217606e-11
  vertex 19.58213 1.7071216 8.765697
 endloop
endfacet
facet normal -0.1837377 0.67306167 -0.71639955
 outer loop
  vertex 14.855586 16.03729 9.9217606e-11
  vertex 7.1055107 13.921614 9.9217606e-11
  vertex 7.1055107 20.307047 5.9991527
 endloop
endfacet
facet normal -0.18461369 0.6722396 -0.7169461
 outer loop
  vertex 7.1055107 20.307047 5.9991527
  vertex 9.898451 19.777395 4.783346
  vertex 14.855586 16.03729 9.9217606e-11
 endloop
endfacet
facet normal 0.21848471 0.97497624 0.04105789
 outer loop
  vertex 7.1055107 20.237629 8.7167635
  vertex 17.741348 17.82723 9.357645
  vertex 9.898451 19.777395 4.783346
 endloop
endfacet
facet normal 0.19676991 0.98012996 0.025036188
 outer loop
  vertex 9.898451 19.777395 4.783346
  vertex 7.1055107 20.307047 5.9991527
  vertex 7.1055107 20.237629 8.7167635
 endloop
endfacet
facet normal 0.7522047 -0.658218 -0.030612754
 outer loop
  vertex 13.331948 3.471596 9.9217606e-11
  vertex 16.295559 6.8583794 9.9217606e-11
  vertex 16.620777 7.0002594 4.940512
 endloop
endfacet
facet normal 0.81749266 0.04227249 -0.5743855
 outer loop
  vertex 16.620777 7.0002594 4.940512
  vertex 19.58213 1.7071216 8.765697
  vertex 13.331948 3.471596 9.9217606e-11
 endloop
endfacet
facet normal 0.54035926 0.78953975 -0.2909278
 outer loop
  vertex 24.065765 13.299908 9.677772
  vertex 22.363419 10.898947 9.9217606e-11
  vertex 14.855586 16.03729 9.9217606e-11
 endloop
endfacet
facet normal 0.56224185 0.76284254 -0.31930456
 outer loop
  vertex 14.855586 16.03729 9.9217606e-11
  vertex 17.741348 17.82723 9.357645
  vertex 24.065765 13.299908 9.677772
 endloop
endfacet
facet normal 0.38526735 0.87717223 -0.28659725
 outer loop
  vertex 17.741348 17.82723 9.357645
  vertex 14.855586 16.03729 9.9217606e-11
  vertex 9.898451 19.777395 4.783346
 endloop
endfacet
facet normal 0 0 -1
 outer loop
  vertex 16.295559 6.8583794 9.9217606e-11
  vertex 13.331948 3.471596 9.9217606e-11
  vertex 7.1055107 13.921614 9.9217606e-11
 endloop
endfacet
facet normal -0 0 -1
 outer loop
  vertex 7.1055107 13.921614 9.9217606e-11
  vertex 14.855586 16.03729 9.9217606e-11
  vertex 16.295559 6.8583794 9.9217606e-11
 endloop
endfacet
facet normal 0 0 -1
 outer loop
  vertex 13.331948 3.471596 9.9217606e-11
  vertex 9.881714 -4.0524535 9.9217606e-11
  vertex 7.1055107 -5.313072 9.9217606e-11
 endloop
endfacet
facet normal -0 -0 -1
 outer loop
  vertex 7.1055107 -5.313072 9.9217606e-11
  vertex 7.1055107 13.921614 9.9217606e-11
  vertex 13.331948 3.471596 9.9217606e-11
 endloop
endfacet
facet normal 0.28480563 -0.67900544 -0.6766369
 outer loop
  vertex 7.1055107 -11.031597 5.8082657
  vertex 12.432843 -9.725347 6.739789
  vertex 17.416927 -14.986361 14.117087
 endloop
endfacet
facet normal 0.27967742 -0.68473 -0.6729974
 outer loop
  vertex 17.416927 -14.986361 14.117087
  vertex 10.634189 -17.886747 14.249336
  vertex 7.1055107 -11.031597 5.8082657
 endloop
endfacet
facet normal 0.392497 -0.91925687 -0.030214129
 outer loop
  vertex 10.634189 -17.886747 14.249336
  vertex 17.416927 -14.986361 14.117087
  vertex 18.40398 -14.639983 16.40097
 endloop
endfacet
facet normal 0.39249727 -0.91925675 -0.030215187
 outer loop
  vertex 18.40398 -14.639983 16.40097
  vertex 10.627687 -17.970524 16.713673
  vertex 10.634189 -17.886747 14.249336
 endloop
endfacet
facet normal 0.5558183 -0.79636806 0.23846155
 outer loop
  vertex 12.493758 -13.163325 21.238882
  vertex 12.501873 -14.146294 17.937239
  vertex 14.905843 -12.434591 18.050358
 endloop
endfacet
facet normal 0.5649846 -0.787102 0.24751347
 outer loop
  vertex 14.905843 -12.434591 18.050358
  vertex 14.776315 -11.469629 21.414639
  vertex 12.493758 -13.163325 21.238882
 endloop
endfacet
facet normal 0.20299797 -0.46312186 0.862734
 outer loop
  vertex 7.1055107 -14.109121 25.965673
  vertex 16.564735 -9.922851 25.987175
  vertex 13.0516615 -6.5348263 28.632504
 endloop
endfacet
facet normal 0.18371202 -0.4516271 0.8730881
 outer loop
  vertex 13.0516615 -6.5348263 28.632504
  vertex 7.1055107 -6.7508097 29.771948
  vertex 7.1055107 -14.109121 25.965673
 endloop
endfacet
facet normal 0.1171814 0.6650314 0.73756474
 outer loop
  vertex 7.1055107 -4.910136 28.11229
  vertex 7.1055107 -6.7508097 29.771948
  vertex 13.0516615 -6.5348263 28.632504
 endloop
endfacet
facet normal 0.13232003 0.7067886 0.69493973
 outer loop
  vertex 13.0516615 -6.5348263 28.632504
  vertex 17.036488 -0.4409802 21.676025
  vertex 7.1055107 -4.910136 28.11229
 endloop
endfacet
facet normal 0.8770541 -0.342528 0.33682436
 outer loop
  vertex 16.564735 -9.922851 25.987175
  vertex 18.40398 -14.639983 16.40097
  vertex 20.998661 -7.027584 17.386007
 endloop
endfacet
facet normal 0.8750197 -0.3516294 0.332712
 outer loop
  vertex 20.998661 -7.027584 17.386007
  vertex 19.248432 -4.1401725 25.040627
  vertex 16.564735 -9.922851 25.987175
 endloop
endfacet
facet normal -0.48378652 0.77672976 0.40328836
 outer loop
  vertex 17.036488 -0.4409802 21.676025
  vertex 13.0516615 -6.5348263 28.632504
  vertex 17.672092 -4.680057 30.602924
 endloop
endfacet
facet normal 0.70339304 0.66018856 0.26341847
 outer loop
  vertex 17.672092 -4.680057 30.602924
  vertex 19.248432 -4.1401725 25.040627
  vertex 17.036488 -0.4409802 21.676025
 endloop
endfacet
facet normal 0.8998096 -0.2615107 -0.34922025
 outer loop
  vertex 20.998661 -7.027584 17.386007
  vertex 18.40398 -14.639983 16.40097
  vertex 17.416927 -14.986361 14.117087
 endloop
endfacet
facet normal 0.89627606 -0.25404507 -0.36352497
 outer loop
  vertex 17.416927 -14.986361 14.117087
  vertex 19.123241 -5.7974195 11.902448
  vertex 20.998661 -7.027584 17.386007
 endloop
endfacet
facet normal 0.3554945 -0.8113734 0.464001
 outer loop
  vertex 7.1055107 -14.109121 25.965673
  vertex 12.282079 -13.910591 22.346804
  vertex 15.302228 -12.289578 22.867493
 endloop
endfacet
facet normal 0.35658434 -0.80813956 0.46878365
 outer loop
  vertex 15.302228 -12.289578 22.867493
  vertex 16.564735 -9.922851 25.987175
  vertex 7.1055107 -14.109121 25.965673
 endloop
endfacet
facet normal 0.3589333 -0.8212451 0.44353515
 outer loop
  vertex 18.40398 -14.639983 16.40097
  vertex 16.265327 -14.823288 17.792282
  vertex 12.457736 -16.520512 17.731035
 endloop
endfacet
facet normal 0.36049768 -0.7960631 0.48613253
 outer loop
  vertex 12.457736 -16.520512 17.731035
  vertex 10.627687 -17.970524 16.713673
  vertex 18.40398 -14.639983 16.40097
 endloop
endfacet
facet normal 0.36954474 -0.7991077 0.47419783
 outer loop
  vertex 7.1055107 -14.109121 25.965673
  vertex 10.627687 -17.970524 16.713673
  vertex 12.457736 -16.520512 17.731035
 endloop
endfacet
facet normal 0.35926327 -0.80644095 0.46966264
 outer loop
  vertex 12.457736 -16.520512 17.731035
  vertex 12.282079 -13.910591 22.346804
  vertex 7.1055107 -14.109121 25.965673
 endloop
endfacet
facet normal 0.3608378 -0.8075197 0.46659198
 outer loop
  vertex 18.40398 -14.639983 16.40097
  vertex 16.564735 -9.922851 25.987175
  vertex 15.302228 -12.289578 22.867493
 endloop
endfacet
facet normal 0.374322 -0.79931784 0.47007874
 outer loop
  vertex 15.302228 -12.289578 22.867493
  vertex 16.265327 -14.823288 17.792282
  vertex 18.40398 -14.639983 16.40097
 endloop
endfacet
facet normal 0.4839816 -0.7655618 -0.42388305
 outer loop
  vertex 15.302228 -12.289578 22.867493
  vertex 12.282079 -13.910591 22.346804
  vertex 12.493758 -13.163325 21.238882
 endloop
endfacet
facet normal 0.5229707 -0.6472451 -0.55459476
 outer loop
  vertex 12.493758 -13.163325 21.238882
  vertex 14.776315 -11.469629 21.414639
  vertex 15.302228 -12.289578 22.867493
 endloop
endfacet
facet normal 0.9984343 -0.02299005 0.050995722
 outer loop
  vertex 12.282079 -13.910591 22.346804
  vertex 12.457736 -16.520512 17.731035
  vertex 12.501873 -14.146294 17.937239
 endloop
endfacet
facet normal 0.9799871 -0.19011353 0.059009396
 outer loop
  vertex 12.501873 -14.146294 17.937239
  vertex 12.493758 -13.163325 21.238882
  vertex 12.282079 -13.910591 22.346804
 endloop
endfacet
facet normal 0.025463784 -0.09304426 0.99533635
 outer loop
  vertex 12.457736 -16.520512 17.731035
  vertex 16.265327 -14.823288 17.792282
  vertex 14.905843 -12.434591 18.050358
 endloop
endfacet
facet normal 0.014925714 -0.086791135 0.9961147
 outer loop
  vertex 14.905843 -12.434591 18.050358
  vertex 12.501873 -14.146294 17.937239
  vertex 12.457736 -16.520512 17.731035
 endloop
endfacet
facet normal -0.8859974 -0.4596172 0.06132414
 outer loop
  vertex 16.265327 -14.823288 17.792282
  vertex 15.302228 -12.289578 22.867493
  vertex 14.776315 -11.469629 21.414639
 endloop
endfacet
facet normal -0.85859615 -0.5005962 0.110527076
 outer loop
  vertex 14.776315 -11.469629 21.414639
  vertex 14.905843 -12.434591 18.050358
  vertex 16.265327 -14.823288 17.792282
 endloop
endfacet
facet normal -0.0057897745 -0.9236161 0.38327503
 outer loop
  vertex 10.627687 -17.970524 16.713673
  vertex 7.1055107 -14.109121 25.965673
  vertex 7.1055107 -18.835066 14.577093
 endloop
endfacet
facet normal 0.13768929 -0.73991525 -0.6584582
 outer loop
  vertex 10.634189 -17.886747 14.249336
  vertex 7.1055107 -18.835066 14.577093
  vertex 7.1055107 -11.031597 5.8082657
 endloop
endfacet
facet normal 0.25661558 -0.96597826 -0.03216198
 outer loop
  vertex 10.634189 -17.886747 14.249336
  vertex 10.627687 -17.970524 16.713673
  vertex 7.1055107 -18.835066 14.577093
 endloop
endfacet
facet normal 0.649852 0.716467 0.25370756
 outer loop
  vertex 17.672092 -4.680057 30.602924
  vertex 19.483006 -6.3225965 30.602924
  vertex 19.248432 -4.1401725 25.040627
 endloop
endfacet
facet normal 0.8734486 -0.43962482 -0.20932633
 outer loop
  vertex 19.483006 -6.3225965 30.602924
  vertex 16.564735 -9.922851 25.987175
  vertex 19.248432 -4.1401725 25.040627
 endloop
endfacet
facet normal 0.6853254 -0.2884208 -0.6686872
 outer loop
  vertex 19.123241 -5.7974195 11.902448
  vertex 17.416927 -14.986361 14.117087
  vertex 12.432843 -9.725347 6.739789
 endloop
endfacet
facet normal -0.33193386 -0.7698285 0.5451458
 outer loop
  vertex 13.0516615 -6.5348263 28.632504
  vertex 16.564735 -9.922851 25.987175
  vertex 16.670944 -6.7000523 30.602924
 endloop
endfacet
facet normal -0.4576816 0.22683574 0.85969365
 outer loop
  vertex 16.670944 -6.7000523 30.602924
  vertex 17.672092 -4.680057 30.602924
  vertex 13.0516615 -6.5348263 28.632504
 endloop
endfacet
facet normal 0.109551616 -0.8161643 0.56733966
 outer loop
  vertex 19.483006 -6.3225965 30.602924
  vertex 16.670944 -6.7000523 30.602924
  vertex 16.564735 -9.922851 25.987175
 endloop
endfacet
facet normal 0 0 1
 outer loop
  vertex 16.670944 -6.7000523 30.602924
  vertex 19.483006 -6.3225965 30.602924
  vertex 17.672092 -4.680057 30.602924
 endloop
endfacet
endsolid 
